<svg width="97" height="97" viewBox="0 0 97 97" fill="none" xmlns="http://www.w3.org/2000/svg">
<path d="M55.1137 12.1391C55.076 12.6711 54.8869 13.0747 54.5466 13.35C54.2063 13.6253 53.7823 13.7984 53.2747 13.8693L53.2701 13.9332C53.7968 14.0454 54.2461 14.2697 54.6179 14.6062C54.9904 14.9321 55.1541 15.4142 55.1088 16.0526C55.0831 16.4143 54.9902 16.7446 54.83 17.0433C54.6804 17.3428 54.4594 17.5945 54.1669 17.7983C53.8744 18.0021 53.5055 18.1524 53.0602 18.2491C52.6157 18.3352 52.0849 18.3564 51.4677 18.3126L47.781 18.0511L48.3878 9.49661L52.0586 9.75698C52.6651 9.8 53.2028 9.90765 53.6718 10.0799C54.1521 10.2423 54.5193 10.4929 54.7733 10.8318C55.0387 11.1607 55.1522 11.5965 55.1137 12.1391ZM53.6564 15.9496C53.6911 15.4601 53.5299 15.0958 53.1725 14.8566C52.8152 14.6174 52.2748 14.4721 51.5513 14.4208L49.4606 14.2725L49.2659 17.0176L51.3885 17.1681C52.0908 17.218 52.6352 17.155 53.022 16.9792C53.4095 16.7929 53.621 16.4496 53.6564 15.9496ZM53.6808 12.2139C53.7095 11.8096 53.5813 11.5064 53.2962 11.3044C53.0225 11.0925 52.5558 10.9632 51.8961 10.9164L49.7096 10.7613L49.5432 13.1074L51.4744 13.2444C52.166 13.2934 52.6994 13.235 53.0748 13.0692C53.4501 12.9033 53.6521 12.6182 53.6808 12.2139Z" fill="#FE493C"/>
<path d="M64.1063 12.3557C64.7827 12.6461 65.2978 13.0414 65.6519 13.5416C66.0157 14.0461 66.2093 14.6225 66.2328 15.271C66.2702 15.9139 66.1353 16.5931 65.8281 17.3086L65.4936 18.0879L60.0978 15.7714C59.7345 16.6718 59.6675 17.4498 59.8968 18.1054C60.1401 18.7554 60.6538 19.2488 61.4379 19.5854C61.9378 19.8 62.3978 19.9453 62.8179 20.0211C63.2521 20.0914 63.7129 20.1267 64.2003 20.127L63.7143 21.2591C63.2367 21.263 62.785 21.22 62.3593 21.1301C61.9293 21.05 61.4448 20.8943 60.9057 20.6628C60.1608 20.343 59.5644 19.9071 59.1166 19.355C58.6785 18.8071 58.4261 18.1647 58.3593 17.428C58.3066 16.6856 58.4674 15.8783 58.8419 15.0059C59.2122 14.1434 59.6721 13.4644 60.2214 12.9689C60.7805 12.4776 61.3914 12.1769 62.0539 12.0667C62.7263 11.9606 63.4104 12.057 64.1063 12.3557ZM63.6372 13.408C63.0197 13.1429 62.4433 13.1335 61.9082 13.3796C61.387 13.6202 60.9406 14.0786 60.569 14.7549L64.5828 16.478C64.7764 16.0271 64.8761 15.6056 64.8819 15.2135C64.8878 14.8213 64.7885 14.4711 64.5842 14.1628C64.3939 13.849 64.0783 13.5974 63.6372 13.408Z" fill="#FE493C"/>
<path d="M75.4125 20.333C76.142 21.0965 76.4617 21.9639 76.3717 22.9351C76.2891 23.914 75.7117 24.9155 74.6397 25.9398C73.9379 26.6104 73.2409 27.0698 72.5487 27.3181C71.8716 27.5667 71.2254 27.6161 70.6102 27.4663C70.01 27.3168 69.4631 26.9837 68.9694 26.467C68.6673 26.1508 68.4407 25.8288 68.2898 25.5009C68.1388 25.1731 68.0441 24.8578 68.0058 24.5552C67.9825 24.2529 67.9929 23.9626 68.0369 23.6845L67.9706 23.6151C67.8542 23.7558 67.7032 23.9296 67.5174 24.1367C67.3316 24.3437 67.1654 24.5172 67.0189 24.6572L64.4739 27.0889L63.5012 26.0709L72.4783 17.4936L73.2741 18.3265L72.5622 19.2722L72.6064 19.3185C72.9017 19.2724 73.2037 19.2642 73.5123 19.2939C73.8284 19.3313 74.143 19.429 74.4563 19.587C74.7769 19.7527 75.0956 20.0014 75.4125 20.333ZM74.3796 20.9659C73.9817 20.5494 73.5802 20.2913 73.175 20.1915C72.7776 20.0844 72.3655 20.1241 71.9388 20.3105C71.5121 20.4969 71.0521 20.8184 70.5588 21.2749L70.3622 21.4628C69.8532 21.9492 69.4729 22.4158 69.2213 22.8627C68.9697 23.3097 68.8729 23.7488 68.931 24.1802C68.9964 24.6192 69.2428 25.0624 69.6702 25.5097C70.0313 25.8876 70.4301 26.0967 70.8668 26.1368C71.3108 26.1846 71.7655 26.0969 72.2308 25.8736C72.7112 25.6507 73.1827 25.3181 73.6455 24.876C74.355 24.1981 74.7892 23.5177 74.9481 22.8347C75.1144 22.1595 74.9249 21.5366 74.3796 20.9659Z" fill="#FE493C"/>
<path d="M82.3581 29.5351L79.1334 31.0622L81.1262 35.2702L84.3509 33.7431L84.9535 35.0156L77.2027 38.6861L76.6001 37.4136L80.0561 35.7769L78.0634 31.5689L74.6073 33.2056L74.0047 31.9331L81.7555 28.2626L82.3581 29.5351Z" fill="#FE493C"/>
<path d="M86.5593 42.4774L86.6329 43.9796L81.8497 46.0723C81.5672 46.193 81.2949 46.3024 81.0328 46.4007C80.7711 46.5097 80.5143 46.6077 80.2622 46.6948C80.0208 46.7814 79.784 46.8517 79.5517 46.9058L79.5548 46.9698C79.8243 47.0206 80.1755 47.1049 80.6085 47.2225C81.0521 47.3396 81.4959 47.462 81.9401 47.5897L86.8836 49.0935L86.958 50.6116L77.0288 47.398C76.4862 47.2217 76.011 47.0047 75.6032 46.747C75.1853 46.5005 74.8601 46.1854 74.6277 45.8016C74.3852 45.429 74.2504 44.9658 74.2232 44.4118C74.2107 44.1561 74.2157 43.9315 74.2382 43.7382C74.2501 43.5454 74.2687 43.379 74.2939 43.2389L75.4125 43.1841C75.3969 43.3023 75.3824 43.4418 75.369 43.6027C75.356 43.7742 75.354 43.9505 75.3628 44.1316C75.379 44.4619 75.4568 44.7411 75.5961 44.9692C75.7253 45.2085 75.9113 45.4076 76.1541 45.5666C76.3861 45.7261 76.6595 45.8569 76.9742 45.9589L78.1308 46.3508L86.5593 42.4774Z" fill="#FE493C"/>
<path d="M83.2206 61.0569L83.8388 58.326L76.6292 56.694L76.9365 55.3364L84.1461 56.9683L84.7572 54.2686L85.912 54.53L84.3754 61.3183L83.2206 61.0569Z" fill="#FE493C"/>
<path d="M77.7888 67.5821C77.3717 68.2014 76.9509 68.6639 76.5264 68.9696C76.1019 69.2752 75.6707 69.4285 75.2328 69.4294C74.7979 69.4451 74.3548 69.301 73.9036 68.9971C73.4612 68.6991 73.1449 68.3382 72.9546 67.9142C72.7584 67.4991 72.7118 67.0241 72.8149 66.4891C72.9181 65.9541 73.1901 65.3593 73.631 64.7046L75.803 61.4798L82.9161 66.2707L82.1295 67.4385L79.21 65.4721L77.7888 67.5821ZM74.6238 67.7846C75.0573 68.0766 75.4535 68.1184 75.8125 67.91C76.1743 67.7165 76.54 67.3455 76.9094 66.7969L78.2412 64.8196L75.9587 63.2823L74.609 65.2861C74.2753 65.7815 74.0897 66.2481 74.0521 66.6858C74.0086 67.1323 74.1991 67.4986 74.6238 67.7846Z" fill="#FE493C"/>
<path d="M67.9665 71.5362C68.5875 71.1027 69.2315 70.8419 69.8983 70.7536C70.5565 70.6715 71.2117 70.7996 71.864 71.1377C72.5075 71.482 73.1193 72.0697 73.6993 72.9006C74.3037 73.7665 74.6508 74.5714 74.7407 75.3152C74.8305 76.0589 74.7191 76.7286 74.4063 77.3241C74.0848 77.9258 73.6092 78.4464 72.9794 78.8859C72.6208 79.1362 72.2478 79.338 71.8605 79.4913C71.4793 79.6533 71.1471 79.7551 70.8639 79.7967L70.5496 78.5916C70.8145 78.5238 71.1113 78.4272 71.44 78.3018C71.7688 78.1765 72.0556 78.0283 72.3005 77.8574C72.7728 77.5277 73.0918 77.1554 73.2576 76.7406C73.4233 76.3257 73.4431 75.8696 73.3171 75.3722C73.1911 74.8748 72.9235 74.3331 72.5145 73.7471C72.1238 73.1873 71.7167 72.7625 71.2933 72.4726C70.8699 72.1828 70.4392 72.0411 70.0014 72.0475C69.5636 72.0539 69.1217 72.2128 68.6756 72.5241C68.2907 72.7928 67.9815 73.0672 67.7478 73.3474C67.5053 73.6336 67.3013 73.9191 67.1358 74.2038L66.4215 73.1804C66.5722 72.8931 66.7705 72.6181 67.0164 72.3554C67.2474 72.0901 67.5642 71.817 67.9665 71.5362Z" fill="#FE493C"/>
<path d="M63.0017 75.2679L64.4842 74.5854L63.766 78.8793C64.1021 78.8185 64.4485 78.8058 64.8053 78.8411C65.1666 78.8862 65.5036 79.0187 65.8163 79.2388C66.1334 79.4686 66.3968 79.8112 66.6065 80.2665C66.9499 81.0126 66.959 81.6954 66.6335 82.3149C66.3126 82.9441 65.7355 83.4506 64.9022 83.8342L61.4141 85.44L57.8277 77.6499L59.1067 77.0611L60.5319 80.1568L62.4213 79.287L63.0017 75.2679ZM65.3644 80.8208C65.1592 80.375 64.8406 80.1166 64.4086 80.0454C63.9713 79.9884 63.4523 80.0981 62.8516 80.3747L61.0203 81.2178L62.2046 83.7902L64.283 82.8334C64.874 82.5613 65.2468 82.2488 65.4014 81.8958C65.5462 81.5473 65.5339 81.1889 65.3644 80.8208Z" fill="#FE493C"/>
<path d="M43.6215 86.7733L42.0955 86.5989L46.2046 82.9137L42.7674 78.0438L44.3889 78.2292L47.7415 82.9928L48.2358 78.6689L49.6347 78.8288L48.6607 87.3493L47.2618 87.1894L47.7343 83.0563L43.6215 86.7733Z" fill="#FE493C"/>
<path d="M23.3857 75.9496C23.7077 75.5245 24.0865 75.2895 24.5219 75.2447C24.9573 75.1999 25.407 75.2864 25.8711 75.5041L25.9097 75.4531C25.5297 75.0715 25.2758 74.6382 25.148 74.1533C25.0138 73.677 25.14 73.1837 25.5265 72.6736C25.7455 72.3845 26.0036 72.1586 26.301 71.9957C26.5898 71.8265 26.9124 71.7363 27.2687 71.7253C27.625 71.7142 28.0161 71.7897 28.442 71.9518C28.8614 72.1224 29.3177 72.3945 29.8108 72.7681L32.7568 75.0001L27.5778 81.8357L24.6446 79.6134C24.16 79.2462 23.7683 78.8624 23.4694 78.462C23.1556 78.0637 22.9848 77.6532 22.957 77.2307C22.9142 76.8102 23.0571 76.3832 23.3857 75.9496ZM26.687 73.5528C26.3907 73.9439 26.3269 74.3372 26.4956 74.7327C26.6644 75.1282 27.0378 75.545 27.6159 75.983L29.2866 77.2488L30.9485 75.0552L29.2523 73.7702C28.6912 73.345 28.2007 73.1005 27.7807 73.0366C27.3543 72.9812 26.9897 73.1532 26.687 73.5528ZM24.627 76.6692C24.3822 76.9923 24.3241 77.3163 24.4526 77.6412C24.5662 77.9682 24.8866 78.3313 25.4137 78.7307L27.1609 80.0544L28.5812 78.1797L27.0381 77.0106C26.4855 76.5919 26.0067 76.3496 25.6016 76.2836C25.1966 76.2176 24.8717 76.3462 24.627 76.6692Z" fill="#FE493C"/>
<path d="M25.4319 69.006L18.3196 73.7979L17.5328 72.6302L20.4521 70.6634L19.2094 68.819C18.7922 68.1997 18.5247 67.6404 18.4068 67.141C18.289 66.6416 18.3149 66.1933 18.4846 65.796C18.6454 65.4047 18.9513 65.0571 19.4025 64.7531C19.8448 64.4551 20.2952 64.2932 20.7536 64.2672C21.2061 64.2325 21.6579 64.359 22.1089 64.6467C22.5541 64.9256 22.9972 65.3923 23.4382 66.0469L25.4319 69.006ZM22.5676 66.7878C22.2279 66.2836 21.8667 65.9289 21.4841 65.7237C21.0926 65.5244 20.6801 65.5708 20.2466 65.8628C19.8132 66.1549 19.6196 66.4975 19.6659 66.8908C19.7034 67.29 19.9068 67.7638 20.2764 68.3123L21.4207 70.0107L23.703 68.473L22.5676 66.7878ZM20.783 62.106L13.6707 66.8979L12.8839 65.7302L19.9962 60.9383L20.783 62.106Z" fill="#FE493C"/>
<path d="M18.4218 56.3908C18.5861 57.1301 18.5821 57.8249 18.4097 58.4751C18.2351 59.1149 17.8672 59.672 17.3061 60.1464C16.7426 60.6103 15.9663 60.9522 14.9771 61.1721C13.9463 61.4012 13.0699 61.4157 12.3479 61.2156C11.626 61.0155 11.0492 60.6574 10.6177 60.1414C10.1838 59.615 9.88352 58.977 9.71689 58.2273C9.62201 57.8003 9.57745 57.3786 9.58322 56.9621C9.57857 56.5479 9.61096 56.202 9.68036 55.9243L10.9143 56.0926C10.8761 56.3633 10.8524 56.6746 10.8432 57.0263C10.8339 57.378 10.8617 57.6996 10.9265 57.9912C11.0515 58.5535 11.2742 58.9902 11.5947 59.3014C11.9152 59.6126 12.3294 59.8047 12.8373 59.8775C13.3452 59.9504 13.948 59.9093 14.6456 59.7543C15.312 59.6061 15.8598 59.3915 16.2891 59.1103C16.7183 58.8292 17.0133 58.485 17.1741 58.0777C17.3349 57.6705 17.3563 57.2013 17.2382 56.6703C17.1364 56.2121 17.0005 55.8217 16.8304 55.4989C16.658 55.1657 16.4717 54.8683 16.2715 54.6069L17.4898 54.3361C17.6981 54.5848 17.8768 54.8729 18.0261 55.2003C18.1834 55.515 18.3154 55.9119 18.4218 56.3908Z" fill="#FE493C"/>
<path d="M10.7187 45.883L10.6756 48.6827L18.0667 48.7963L18.0453 50.1882L10.6542 50.0745L10.6117 52.8422L9.42781 52.824L9.53481 45.8648L10.7187 45.883Z" fill="#FE493C"/>
<path d="M10.2225 37.9167C10.5286 36.9172 10.9743 36.2449 11.5597 35.8998C12.145 35.5548 12.9171 35.529 13.8758 35.8226L19.4598 37.5326L19.16 38.5117L17.9177 38.4157L17.8989 38.4769C18.1229 38.8021 18.2978 39.1234 18.4237 39.4408C18.5425 39.7449 18.5979 40.0742 18.5897 40.4287C18.5847 40.773 18.5119 41.1746 18.3713 41.6336C18.2214 42.1231 17.9989 42.5403 17.7037 42.8849C17.4116 43.2194 17.0527 43.4442 16.6271 43.5592C16.1912 43.6712 15.6979 43.6428 15.1471 43.4742C14.3312 43.2243 13.8023 42.711 13.5605 41.9341C13.3085 41.1542 13.3667 40.0899 13.735 38.7413L14.1154 37.3351L13.6259 37.1851C12.9425 36.9759 12.423 36.9785 12.0672 37.1931C11.7115 37.4077 11.4508 37.7852 11.2853 38.3258C11.1541 38.7542 11.0955 39.1824 11.1094 39.6106C11.1131 40.0357 11.145 40.4415 11.2051 40.828L10.0689 40.9319C9.98447 40.5156 9.95089 40.0423 9.96822 39.5122C9.97534 38.9789 10.0601 38.447 10.2225 37.9167ZM14.7198 38.8588C14.4482 39.8912 14.3944 40.65 14.5581 41.1352C14.725 41.6102 15.0686 41.9274 15.5887 42.0867C16.0477 42.2272 16.4264 42.1926 16.7249 41.9828C17.0266 41.7628 17.2445 41.4335 17.3788 40.995C17.5912 40.3014 17.579 39.6674 17.3422 39.0929C17.0951 38.5152 16.5739 38.1046 15.7783 37.861L15.044 37.6361L14.7198 38.8588Z" fill="#FE493C"/>
<path d="M19.2024 25.6559C19.6535 25.9405 19.9199 26.2977 20.0018 26.7277C20.0836 27.1577 20.0359 27.6132 19.8586 28.0941L19.9128 28.1283C20.2605 27.717 20.6704 27.4271 21.1427 27.2583C21.6058 27.0839 22.1081 27.1674 22.6493 27.5089C22.9561 27.7024 23.2033 27.9403 23.3909 28.2227C23.5842 28.496 23.7016 28.8097 23.7431 29.1637C23.7845 29.5178 23.7427 29.9139 23.6176 30.3521C23.4835 30.7846 23.2514 31.2625 22.9213 31.7857L20.9492 34.9116L13.696 30.3357L15.6596 27.2233C15.984 26.7091 16.3329 26.286 16.7063 25.954C17.0764 25.6073 17.4707 25.4021 17.8893 25.3383C18.3046 25.2597 18.7423 25.3656 19.2024 25.6559ZM21.8725 28.7403C21.4575 28.4785 21.0602 28.4486 20.6806 28.6505C20.3009 28.8524 19.9176 29.2601 19.5306 29.8735L18.4122 31.6463L20.7397 33.1146L21.8752 31.3149C22.2508 30.7195 22.4525 30.2098 22.4803 29.7859C22.4991 29.3564 22.2965 29.0078 21.8725 28.7403ZM18.5914 26.9541C18.2486 26.7379 17.9209 26.7077 17.6081 26.8635C17.2921 27.0046 16.9576 27.3549 16.6047 27.9142L15.4352 29.7681L17.4244 31.023L18.4574 29.3857C18.8273 28.7993 19.0278 28.3015 19.059 27.8923C19.0901 27.4831 18.9343 27.1704 18.5914 26.9541Z" fill="#FE493C"/>
<path d="M24.3252 17.5421L25.4774 16.5263L25.4587 22.0458L31.3767 22.7584L30.1524 23.8376L24.37 23.1336L27.248 26.3981L26.1918 27.3292L20.5205 20.8962L21.5767 19.9651L24.3277 23.0856L24.3252 17.5421Z" fill="#FE493C"/>
<path d="M31.9205 12.6094C32.598 12.3218 33.2398 12.2232 33.846 12.3135C34.462 12.3996 35.0122 12.6586 35.4967 13.0902C35.9869 13.5079 36.3841 14.0751 36.6884 14.7918L37.0198 15.5724L31.6146 17.867C32.0136 18.7521 32.5291 19.3386 33.1612 19.6265C33.7989 19.9004 34.5105 19.8707 35.296 19.5372C35.7968 19.3247 36.2198 19.0929 36.5653 18.842C36.9163 18.5771 37.2605 18.2687 37.5979 17.9169L38.0793 19.051C37.7518 19.3986 37.4083 19.695 37.0489 19.9403C36.6937 20.1954 36.246 20.4376 35.706 20.6668C34.9598 20.9836 34.2324 21.1128 33.5239 21.0543C32.8252 20.9917 32.1868 20.7297 31.6085 20.2683C31.0359 19.7929 30.5641 19.1183 30.1931 18.2444C29.8263 17.3804 29.654 16.5787 29.6762 15.8392C29.7081 15.0956 29.9135 14.4464 30.2921 13.8917C30.6806 13.3328 31.2234 12.9053 31.9205 12.6094ZM32.356 13.6761C31.7374 13.9387 31.3319 14.3483 31.1395 14.9051C30.9528 15.4479 30.9751 16.0874 31.2065 16.8235L35.2272 15.1167C35.0354 14.665 34.8 14.3014 34.5208 14.026C34.2416 13.7505 33.9201 13.5799 33.5561 13.5142C33.1979 13.4346 32.7978 13.4885 32.356 13.6761Z" fill="#FE493C"/>
</svg>
