<svg width="73" height="74" viewBox="0 0 73 74" fill="none" xmlns="http://www.w3.org/2000/svg">
<path d="M44.373 15.9731C44.2367 16.6746 44.0214 17.2794 43.7272 17.7872C43.4455 18.2867 43.0952 18.6913 42.6765 19.0012C42.2682 19.313 41.7986 19.5207 41.2679 19.624C40.7496 19.7189 40.192 19.7084 39.5952 19.5925C39.0402 19.4847 38.5455 19.2908 38.1109 19.0108C37.6783 18.7204 37.3259 18.3531 37.0536 17.909C36.7812 17.465 36.5975 16.9566 36.5022 16.3839C36.4195 15.8028 36.4463 15.1615 36.5825 14.4599C36.7635 13.528 37.0731 12.7732 37.5113 12.1955C37.9516 11.6073 38.4974 11.2026 39.1489 10.9814C39.8024 10.7498 40.5322 10.7123 41.3385 10.8689C42.1029 11.0173 42.7395 11.3203 43.2483 11.7777C43.7695 12.2266 44.1294 12.8072 44.3279 13.5195C44.539 14.2233 44.554 15.0412 44.373 15.9731ZM38.0118 14.7376C37.8837 15.3972 37.8556 15.9894 37.9276 16.5141C38.012 17.0303 38.2121 17.4549 38.5277 17.7879C38.8433 18.1208 39.2839 18.3422 39.8493 18.452C40.4147 18.5619 40.9061 18.5215 41.3234 18.3309C41.7408 18.1403 42.08 17.8204 42.3411 17.3713C42.6147 16.9138 42.8155 16.3551 42.9437 15.6955C43.0738 15.0253 43.0957 14.4374 43.0092 13.9316C42.9227 13.4258 42.7206 13.0117 42.4029 12.6892C42.0978 12.3583 41.6572 12.1369 41.0813 12.025C40.2227 11.8583 39.5448 12.02 39.0475 12.5102C38.5503 13.0003 38.205 13.7428 38.0118 14.7376Z" fill="#FE493C"/>
<path d="M53.9531 17.4577L51.2698 19.8095L54.3386 23.311L57.0219 20.9592L57.95 22.0181L51.5005 27.6707L50.5724 26.6118L53.4482 24.0914L50.3794 20.5899L47.5036 23.1103L46.5755 22.0515L53.025 16.3989L53.9531 17.4577Z" fill="#FE493C"/>
<path d="M62.0375 30.452C62.2412 31.4773 62.167 32.2805 61.8148 32.8616C61.4626 33.4427 60.7948 33.8309 59.8113 34.0263L54.0833 35.1643L53.8837 34.1599L55.0234 33.6562L55.0109 33.5934C54.6597 33.4131 54.3535 33.2129 54.0923 32.9929C53.8437 32.7813 53.639 32.5175 53.4783 32.2014C53.3197 31.8958 53.1937 31.5075 53.1001 31.0367C53.0004 30.5346 52.9989 30.0618 53.0957 29.6184C53.1945 29.1855 53.4042 28.8176 53.7247 28.5147C54.0556 28.2097 54.5035 28.0011 55.0685 27.8889C55.9054 27.7226 56.6143 27.9243 57.1952 28.494C57.7864 29.0617 58.2391 30.0267 58.5533 31.3889L58.8841 32.8076L59.3863 32.7079C60.0872 32.5686 60.5436 32.3202 60.7553 31.9628C60.9671 31.6054 61.0179 31.1494 60.9077 30.5949C60.8204 30.1555 60.6692 29.7505 60.4543 29.38C60.2497 29.0073 60.0295 28.665 59.7935 28.353L60.7451 27.7235C61.0166 28.0502 61.2702 28.4512 61.506 28.9263C61.7523 29.3994 61.9294 29.908 62.0375 30.452ZM57.6303 31.7517C57.3806 30.7138 57.0687 30.0199 56.6947 29.6701C56.3228 29.3307 55.8701 29.2141 55.3365 29.3201C54.8657 29.4136 54.5485 29.6234 54.3849 29.9496C54.2234 30.2861 54.1873 30.6794 54.2767 31.1293C54.418 31.8407 54.729 32.3933 55.2097 32.7872C55.7008 33.1791 56.3543 33.2939 57.1704 33.1318L57.9237 32.9821L57.6303 31.7517Z" fill="#FE493C"/>
<path d="M59.3477 49.8472L51.3071 46.8646L55.3526 35.9587L63.3932 38.9414L62.9035 40.2615L55.973 37.6906L54.6876 41.1559L61.6181 43.7267L61.1284 45.0468L54.1979 42.476L52.9069 45.9562L59.8374 48.5271L59.3477 49.8472Z" fill="#FE493C"/>
<path d="M54.9343 55.9067C54.4158 56.429 53.8589 56.7629 53.2635 56.9084C52.6607 57.0614 52.0534 57.0297 51.4417 56.8132C50.83 56.6118 50.2478 56.2368 49.6952 55.6882L49.0934 55.0907L53.2305 50.9235C52.5266 50.2548 51.8276 49.9066 51.1336 49.879C50.4397 49.8664 49.7921 50.1629 49.1909 50.7685C48.8076 51.1546 48.5035 51.529 48.2785 51.8919C48.0536 52.2698 47.8515 52.6854 47.6721 53.1386L46.7978 52.2706C46.9697 51.825 47.1756 51.4207 47.4157 51.0578C47.6481 50.6874 47.971 50.294 48.3844 49.8776C48.9555 49.3023 49.5801 48.9078 50.2582 48.6942C50.9287 48.4881 51.6188 48.4894 52.3286 48.698C53.0384 48.9217 53.7302 49.3679 54.4039 50.0368C55.07 50.6981 55.5326 51.3753 55.7915 52.0682C56.043 52.7688 56.0982 53.4474 55.9573 54.1041C55.8089 54.7684 55.4679 55.3693 54.9343 55.9067ZM54.1281 55.0837C54.6015 54.6068 54.8221 54.0743 54.7898 53.4861C54.7575 52.913 54.4952 52.3294 54.0027 51.7353L50.9253 54.8352C51.2736 55.1808 51.629 55.4285 51.9915 55.578C52.3541 55.7275 52.7163 55.7639 53.0781 55.6872C53.4399 55.6255 53.7899 55.4244 54.1281 55.0837Z" fill="#FE493C"/>
<path d="M43.4365 66.5041C43.283 65.9916 43.245 65.5257 43.3224 65.1065C43.3898 64.6912 43.5895 64.3217 43.9215 63.9982C44.2535 63.6746 44.7377 63.3891 45.3739 63.1418C46.0202 62.8906 46.575 62.7722 47.0384 62.7867C47.4918 62.805 47.8717 62.9434 48.1782 63.2019C48.4886 63.4704 48.7622 63.8504 48.999 64.342L47.7762 64.8173C47.5178 64.2998 47.2375 63.991 46.9354 63.891C46.6273 63.8047 46.2147 63.8621 45.6977 64.0631C45.2404 64.2408 44.9192 64.4744 44.7341 64.7638C44.543 65.067 44.523 65.4867 44.6743 66.023L43.4365 66.5041ZM45.4886 56.2822C45.4538 56.1928 45.4085 56.0616 45.3528 55.8887C45.2909 55.7296 45.2283 55.5537 45.1648 55.361C45.1052 55.1781 45.0475 55.0003 44.9918 54.8274C44.9399 54.6645 44.8996 54.5314 44.8709 54.4281L43.1935 62.7877L41.5829 63.4137L38.4759 55.4203L39.6988 54.945L41.5305 59.6575C41.5924 59.8166 41.6735 60.0254 41.774 60.2839C41.8645 60.5462 41.9531 60.8036 42.0398 61.056C42.1303 61.3184 42.1957 61.5161 42.236 61.6492L43.8893 53.3161L45.5149 52.6843L48.6219 60.6777L47.3841 61.1588L45.4886 56.2822Z" fill="#FE493C"/>
<path d="M24.812 61.7586L25.1823 60.634L28.8144 61.8302L31.1267 54.8092L32.464 55.2496L29.7814 63.3952L24.812 61.7586Z" fill="#FE493C"/>
<path d="M19.5919 58.2216C18.7804 57.5627 18.3247 56.8971 18.2247 56.225C18.1246 55.553 18.3907 54.8277 19.0228 54.0494L22.7043 49.516L23.4992 50.1615L22.9438 51.2769L22.9934 51.3173C23.3789 51.2318 23.7424 51.1903 24.0839 51.1928C24.4103 51.1969 24.7363 51.2692 25.0618 51.4099C25.379 51.5438 25.7239 51.7621 26.0965 52.0647C26.494 52.3874 26.797 52.7503 27.0056 53.1533C27.206 53.5496 27.2795 53.9666 27.2264 54.4044C27.1665 54.8504 26.9549 55.297 26.5918 55.7441C26.0539 56.4065 25.3795 56.7039 24.5687 56.6364C23.7512 56.5771 22.7866 56.1235 21.675 55.2758L20.5145 54.3952L20.1918 54.7926C19.7412 55.3474 19.5486 55.8299 19.6139 56.2402C19.6792 56.6505 19.9313 57.0339 20.3701 57.3902C20.7179 57.6727 21.0928 57.8878 21.4949 58.0357C21.8902 58.1918 22.2783 58.3146 22.6592 58.404L22.3288 59.4961C21.9112 59.4181 21.46 59.2715 20.9751 59.0564C20.4836 58.8496 20.0225 58.5713 19.5919 58.2216ZM22.1537 54.4072C23.0086 55.0465 23.6917 55.3813 24.2029 55.4117C24.7058 55.4354 25.1287 55.2361 25.4717 54.8138C25.7743 54.4412 25.8844 54.0772 25.802 53.7217C25.7114 53.3596 25.488 53.0339 25.132 52.7448C24.5689 52.2875 23.9767 52.0608 23.3553 52.0646C22.7272 52.0766 22.1509 52.4056 21.6264 53.0514L21.1422 53.6476L22.1537 54.4072Z" fill="#FE493C"/>
<path d="M18.6471 42.6542L19.2116 43.9616L12.4105 46.8982L13.4127 49.2191C14.6986 48.78 15.814 48.4437 16.7588 48.21C17.6938 47.9805 18.4841 47.86 19.1297 47.8485C19.7754 47.8369 20.2932 47.9329 20.6831 48.1363C21.073 48.3397 21.3589 48.652 21.5407 49.0731C21.5957 49.2004 21.6409 49.3319 21.6762 49.4677C21.7172 49.5894 21.735 49.6979 21.7297 49.7932L20.7602 50.2118C20.7544 50.1446 20.7416 50.0746 20.7218 50.0018C20.702 49.929 20.6773 49.8584 20.6477 49.7898C20.5546 49.5744 20.3819 49.4166 20.1296 49.3164C19.8772 49.2162 19.5402 49.1758 19.1187 49.1952C18.6929 49.2048 18.1805 49.2692 17.5814 49.3885C16.9724 49.512 16.2719 49.6925 15.4798 49.9299C14.6877 50.1674 13.8019 50.4569 12.8224 50.7985L10.7737 46.0539L18.6471 42.6542Z" fill="#FE493C"/>
<path d="M9.59811 38.9845C9.55554 38.2498 9.67887 37.6122 9.9681 37.0719C10.2567 36.521 10.6858 36.0901 11.2555 35.7793C11.8139 35.4585 12.4817 35.2755 13.2591 35.2305L14.1057 35.1814L14.4453 41.0436C15.4131 40.9661 16.139 40.6783 16.623 40.1802C17.0958 39.672 17.3075 38.9919 17.2581 38.14C17.2266 37.5969 17.1509 37.1205 17.031 36.7108C16.8999 36.291 16.7255 35.863 16.5079 35.4269L17.7378 35.3556C17.9548 35.7811 18.1182 36.2044 18.2281 36.6254C18.3486 37.0458 18.4258 37.5488 18.4598 38.1345C18.5067 38.9438 18.3833 39.6722 18.0896 40.3196C17.7952 40.9563 17.3335 41.4692 16.7042 41.8583C16.0638 42.2373 15.2696 42.4543 14.3219 42.5092C13.3848 42.5635 12.5719 42.4557 11.8831 42.1857C11.1937 41.9051 10.6517 41.4931 10.2569 40.9497C9.86151 40.3956 9.64192 39.7406 9.59811 38.9845ZM10.7491 38.9339C10.788 39.6047 11.0371 40.1245 11.4966 40.4932C11.9447 40.8519 12.5543 41.0463 13.3254 41.0764L13.0727 36.7157C12.5828 36.7441 12.1612 36.8433 11.8078 37.0134C11.4544 37.1835 11.1854 37.4288 11.001 37.7493C10.8053 38.0598 10.7213 38.4547 10.7491 38.9339Z" fill="#FE493C"/>
<path d="M11.5632 28.1159C11.9231 27.1231 12.558 26.4512 13.468 26.1003C14.3817 25.7393 15.5355 25.8115 16.9294 26.3167C17.842 26.6474 18.5633 27.0677 19.0933 27.5774C19.6169 28.0735 19.9483 28.6304 20.0875 29.2482C20.2203 29.8522 20.165 30.4902 19.9214 31.1621C19.7724 31.5733 19.5846 31.9193 19.358 32.2002C19.1314 32.4812 18.891 32.7061 18.6369 32.8749C18.3765 33.0301 18.1119 33.1498 17.8431 33.2339L17.8104 33.3242C17.9882 33.3659 18.211 33.424 18.479 33.4984C18.7471 33.5729 18.9763 33.6446 19.1669 33.7137L22.4762 34.9131L21.9965 36.2368L10.3235 32.0062L10.716 30.9232L11.8795 31.1406L11.9013 31.0805C11.7288 30.8364 11.5873 30.5696 11.4767 30.2799C11.3698 29.9802 11.3175 29.6549 11.3198 29.304C11.3258 28.9431 11.407 28.5471 11.5632 28.1159ZM12.5892 28.76C12.3929 29.3015 12.3401 29.7759 12.4307 30.1832C12.5114 30.5868 12.73 30.9383 13.0867 31.2378C13.4433 31.5372 13.9357 31.8064 14.5638 32.0454L14.8196 32.1381C15.4814 32.378 16.0685 32.5113 16.5807 32.5381C17.0928 32.5649 17.5293 32.4565 17.8899 32.2127C18.2541 31.959 18.5417 31.5413 18.7525 30.9597C18.9306 30.4683 18.9406 30.0181 18.7825 29.6091C18.628 29.19 18.3474 28.8217 17.9406 28.5041C17.5274 28.1728 17.02 27.8981 16.4183 27.6801C15.4957 27.3457 14.6931 27.2591 14.0107 27.4202C13.332 27.5713 12.8581 28.0179 12.5892 28.76Z" fill="#FE493C"/>
<path d="M15.9761 19.724C16.4753 19.1832 17.0198 18.8292 17.6094 18.6622C18.2063 18.4874 18.8144 18.4971 19.4335 18.6912C20.0521 18.8703 20.6475 19.2239 21.2197 19.752L21.8428 20.3272L17.8599 24.642C18.5876 25.2847 19.2987 25.6072 19.9933 25.6097C20.6873 25.597 21.3236 25.2772 21.9024 24.6501C22.2714 24.2504 22.5617 23.8651 22.7734 23.4944C22.9844 23.1085 23.1713 22.6858 23.3341 22.2264L24.2394 23.0621C24.0838 23.5137 23.8927 23.9251 23.666 24.2965C23.4471 24.6752 23.1387 25.08 22.7408 25.5111C22.1909 26.1068 21.5811 26.5237 20.9112 26.7618C20.2486 26.9921 19.5589 27.016 18.842 26.8333C18.1245 26.6355 17.417 26.2147 16.7195 25.5707C16.0297 24.9341 15.5429 24.2742 15.2589 23.5911C14.9822 22.9001 14.9023 22.2239 15.0193 21.5625C15.1435 20.8933 15.4624 20.2804 15.9761 19.724ZM16.8118 20.5171C16.3559 21.0109 16.1549 21.5511 16.2085 22.1377C16.2616 22.7093 16.5449 23.283 17.0586 23.8588L20.0214 20.6492C19.6608 20.3164 19.2967 20.0818 18.9289 19.9456C18.5611 19.8093 18.1979 19.7861 17.8391 19.8759C17.4798 19.9507 17.1373 20.1644 16.8118 20.5171Z" fill="#FE493C"/>
<path d="M24.3781 19.2233C24.4241 19.3076 24.4858 19.4319 24.5633 19.5962C24.645 19.746 24.7297 19.9125 24.8174 20.0955C24.9 20.2691 24.98 20.4381 25.0575 20.6024C25.1299 20.7573 25.1869 20.8842 25.2286 20.9829L25.8196 12.4772L27.3366 11.6497L31.4434 19.1785L30.2916 19.8068L27.8705 15.3682C27.7887 15.2183 27.6815 15.0217 27.5487 14.7782C27.4252 14.5297 27.3043 14.2858 27.186 14.0466C27.0625 13.798 26.9723 13.6103 26.9153 13.4834L26.3447 21.9598L24.8137 22.7949L20.7068 15.2662L21.8727 14.6302L24.3781 19.2233Z" fill="#FE493C"/>
</svg>
