<svg width="104" height="66" viewBox="0 0 104 66" fill="none" xmlns="http://www.w3.org/2000/svg">
<rect x="0.35" y="1.35" width="103.3" height="64.3" stroke="#312A24" stroke-width="0.7"/>
<line x1="39.25" y1="1" x2="39.25" y2="26" stroke="#312A24" stroke-width="0.5"/>
<line x1="24.2" y1="1" x2="24.2" y2="26" stroke="#312A24" stroke-width="0.4"/>
<line x1="29.2" y1="16" x2="29.2" y2="26" stroke="#312A24" stroke-width="0.4"/>
<line x1="39" y1="26.25" y2="26.25" stroke="#312A24" stroke-width="0.5"/>
<line x1="39" y1="16.2" x2="24" y2="16.2" stroke="#312A24" stroke-width="0.4"/>
<line x1="29" y1="21.2" x2="24" y2="21.2" stroke="#312A24" stroke-width="0.4"/>
<path d="M103.5 1C103.667 8.16667 102 26.2 91.9998 39C79.4998 55 62.5 66 40 65.5C17.5 65 -4.63128e-05 47.5 0.499954 25.5C0.999954 3.5 20.4999 1.5 24.4999 1.5C28.4999 1.5 38.9999 4.98914 38.9999 16.5C38.9999 28 24.4999 28.5 24.4999 21" stroke="#312A24" stroke-width="0.7"/>
<path d="M19.608 37.76V36.432H22.616V48H21.144V37.76H19.608ZM38.0706 40.08C37.7613 39.4293 37.3133 38.928 36.7266 38.576C36.14 38.2133 35.4573 38.032 34.6786 38.032C33.9 38.032 33.196 38.2133 32.5666 38.576C31.948 38.928 31.4573 39.44 31.0946 40.112C30.7426 40.7733 30.5666 41.5413 30.5666 42.416C30.5666 43.2907 30.7426 44.0587 31.0946 44.72C31.4573 45.3813 31.948 45.8933 32.5666 46.256C33.196 46.608 33.9 46.784 34.6786 46.784C35.7666 46.784 36.6626 46.4587 37.3666 45.808C38.0706 45.1573 38.4813 44.2773 38.5986 43.168H34.1506V41.984H40.1506V43.104C40.0653 44.0213 39.7773 44.864 39.2866 45.632C38.796 46.3893 38.1506 46.992 37.3506 47.44C36.5506 47.8773 35.66 48.096 34.6786 48.096C33.644 48.096 32.7 47.856 31.8466 47.376C30.9933 46.8853 30.316 46.208 29.8146 45.344C29.324 44.48 29.0786 43.504 29.0786 42.416C29.0786 41.328 29.324 40.352 29.8146 39.488C30.316 38.6133 30.9933 37.936 31.8466 37.456C32.7 36.9653 33.644 36.72 34.6786 36.72C35.8626 36.72 36.908 37.0133 37.8146 37.6C38.732 38.1867 39.3986 39.0133 39.8146 40.08H38.0706ZM45.8998 48.144C45.0784 48.144 44.3318 47.9573 43.6598 47.584C42.9984 47.2107 42.4758 46.6827 42.0918 46C41.7184 45.3067 41.5318 44.5067 41.5318 43.6C41.5318 42.704 41.7238 41.9147 42.1078 41.232C42.5024 40.5387 43.0358 40.0107 43.7078 39.648C44.3798 39.2747 45.1318 39.088 45.9638 39.088C46.7958 39.088 47.5478 39.2747 48.2198 39.648C48.8918 40.0107 49.4198 40.5333 49.8038 41.216C50.1984 41.8987 50.3958 42.6933 50.3958 43.6C50.3958 44.5067 50.1931 45.3067 49.7878 46C49.3931 46.6827 48.8544 47.2107 48.1718 47.584C47.4891 47.9573 46.7318 48.144 45.8998 48.144ZM45.8998 46.864C46.4224 46.864 46.9131 46.7413 47.3718 46.496C47.8304 46.2507 48.1984 45.8827 48.4758 45.392C48.7638 44.9013 48.9078 44.304 48.9078 43.6C48.9078 42.896 48.7691 42.2987 48.4918 41.808C48.2144 41.3173 47.8518 40.9547 47.4038 40.72C46.9558 40.4747 46.4704 40.352 45.9478 40.352C45.4144 40.352 44.9238 40.4747 44.4758 40.72C44.0384 40.9547 43.6864 41.3173 43.4198 41.808C43.1531 42.2987 43.0198 42.896 43.0198 43.6C43.0198 44.3147 43.1478 44.9173 43.4038 45.408C43.6704 45.8987 44.0224 46.2667 44.4598 46.512C44.8971 46.7467 45.3771 46.864 45.8998 46.864ZM55.9261 39.088C56.6835 39.088 57.3448 39.2533 57.9101 39.584C58.4861 39.9147 58.9128 40.3307 59.1901 40.832V39.232H60.6621V48.192C60.6621 48.992 60.4915 49.7013 60.1501 50.32C59.8088 50.9493 59.3181 51.44 58.6781 51.792C58.0488 52.144 57.3128 52.32 56.4701 52.32C55.3181 52.32 54.3581 52.048 53.5901 51.504C52.8221 50.96 52.3688 50.2187 52.2301 49.28H53.6701C53.8301 49.8133 54.1608 50.24 54.6621 50.56C55.1635 50.8907 55.7661 51.056 56.4701 51.056C57.2701 51.056 57.9208 50.8053 58.4221 50.304C58.9341 49.8027 59.1901 49.0987 59.1901 48.192V46.352C58.9021 46.864 58.4755 47.2907 57.9101 47.632C57.3448 47.9733 56.6835 48.144 55.9261 48.144C55.1475 48.144 54.4381 47.952 53.7981 47.568C53.1688 47.184 52.6728 46.6453 52.3101 45.952C51.9475 45.2587 51.7661 44.4693 51.7661 43.584C51.7661 42.688 51.9475 41.904 52.3101 41.232C52.6728 40.5493 53.1688 40.0213 53.7981 39.648C54.4381 39.2747 55.1475 39.088 55.9261 39.088ZM59.1901 43.6C59.1901 42.9387 59.0568 42.3627 58.7901 41.872C58.5235 41.3813 58.1608 41.008 57.7021 40.752C57.2541 40.4853 56.7581 40.352 56.2141 40.352C55.6701 40.352 55.1741 40.48 54.7261 40.736C54.2781 40.992 53.9208 41.3653 53.6541 41.856C53.3875 42.3467 53.2541 42.9227 53.2541 43.584C53.2541 44.256 53.3875 44.8427 53.6541 45.344C53.9208 45.8347 54.2781 46.2133 54.7261 46.48C55.1741 46.736 55.6701 46.864 56.2141 46.864C56.7581 46.864 57.2541 46.736 57.7021 46.48C58.1608 46.2133 58.5235 45.8347 58.7901 45.344C59.0568 44.8427 59.1901 44.2613 59.1901 43.6ZM67.4746 39.072C68.136 39.072 68.7333 39.216 69.2666 39.504C69.8 39.7813 70.216 40.2027 70.5146 40.768C70.824 41.3333 70.9786 42.0213 70.9786 42.832V48H69.5386V43.04C69.5386 42.1653 69.32 41.4987 68.8826 41.04C68.4453 40.5707 67.848 40.336 67.0906 40.336C66.3226 40.336 65.7093 40.576 65.2506 41.056C64.8026 41.536 64.5786 42.2347 64.5786 43.152V48H63.1226V36.16H64.5786V40.48C64.8666 40.032 65.2613 39.6853 65.7626 39.44C66.2746 39.1947 66.8453 39.072 67.4746 39.072Z" fill="#312A24"/>
</svg>
